<svg width="32.986328" height="29.608887" viewBox="0 0 32.9863 29.6089" fill="none" xmlns="http://www.w3.org/2000/svg" xmlns:xlink="http://www.w3.org/1999/xlink">
	<desc>
			Created with Pixso.
	</desc>
	<defs>
		<filter id="filter_2_476_dd" x="0.000000" y="0.000000" width="32.986328" height="29.608887" filterUnits="userSpaceOnUse" color-interpolation-filters="sRGB">
			<feFlood flood-opacity="0" result="BackgroundImageFix"/>
			<feColorMatrix in="SourceAlpha" type="matrix" values="0 0 0 0 0 0 0 0 0 0 0 0 0 0 0 0 0 0 127 0" result="hardAlpha"/>
			<feOffset dx="0" dy="4"/>
			<feGaussianBlur stdDeviation="1.33333"/>
			<feComposite in2="hardAlpha" operator="out" k2="-1" k3="1"/>
			<feColorMatrix type="matrix" values="0 0 0 0 0 0 0 0 0 0 0 0 0 0 0 0 0 0 0.25 0"/>
			<feBlend mode="normal" in2="BackgroundImageFix" result="effect_dropShadow_1"/>
			<feBlend mode="normal" in="SourceGraphic" in2="effect_dropShadow_1" result="shape"/>
		</filter>
		<clipPath id="clip2_6906">
			<rect id="Icons-dribbble" width="14.575344" height="12.605051" transform="translate(9.205566 4.501953)" fill="white" fill-opacity="0"/>
		</clipPath>
	</defs>
	<g filter="url(#filter_2_476_dd)">
		<ellipse id="Ellipse 9" cx="16.493164" cy="10.804199" rx="12.493153" ry="10.804329" fill="#FFB400" fill-opacity="1.000000"/>
		<rect id="Icons-dribbble" width="14.575344" height="12.605051" transform="translate(9.205566 4.501953)" fill="#FFFFFF" fill-opacity="0"/>
		<rect id="Icons-dribbble" width="14.575344" height="12.605051" transform="translate(9.205566 4.501953)" fill="#FFFFFF" fill-opacity="0"/>
		<rect id="Icons-dribbble" width="14.575344" height="12.605051" transform="translate(9.205566 4.501953)" fill="#FFFFFF" fill-opacity="0"/>
		<g clip-path="url(#clip2_6906)">
			<path id="Vector" d="M21.3452 10.5796C21.2954 9.75293 20.9629 8.95752 20.3901 8.29443C20.2153 8.45703 20.0288 8.60986 19.8311 8.75146C19.2246 9.18701 18.5464 9.54297 17.8193 9.80713C17.9204 9.99072 18.0137 10.1689 18.0957 10.3369L18.0957 10.3384C18.1187 10.3853 18.1411 10.4326 18.1621 10.4805C19.082 10.3911 20.0513 10.4233 20.9907 10.5332C21.1157 10.5479 21.2334 10.564 21.3452 10.5796ZM15.6455 6.6665C16.2373 7.38818 16.7832 8.13672 17.2808 8.90918C18.0234 8.65625 18.6372 8.33691 19.1318 7.98145C19.3032 7.85889 19.4648 7.72656 19.6152 7.58496C18.7412 6.94922 17.6353 6.60107 16.4937 6.60254C16.2095 6.60254 15.9258 6.62354 15.6455 6.66602L15.6455 6.6665ZM11.7886 9.75244C12.2021 9.74316 12.6157 9.72168 13.0273 9.68799C14.0234 9.61084 15.0107 9.46631 15.9805 9.25586C15.4736 8.49463 14.9263 7.75391 14.3403 7.03613C13.7148 7.3042 13.1631 7.68555 12.7227 8.15381C12.2827 8.62256 11.9639 9.16797 11.7886 9.75244ZM12.7178 13.4487C12.9536 13.1509 13.2632 12.8159 13.6743 12.4512C14.5576 11.6689 15.5996 11.0596 16.8057 10.7236L16.8433 10.7139C16.7432 10.5229 16.6489 10.3521 16.5542 10.1914C15.439 10.4727 14.2646 10.6479 13.0942 10.7388C12.5234 10.7832 12.0117 10.8027 11.6353 10.8062C11.6338 11.7686 12.0166 12.7017 12.7183 13.4487L12.7178 13.4487ZM18.3184 14.6987C18.084 13.6772 17.7529 12.6743 17.3271 11.7002C16.1113 12.082 15.1426 12.6406 14.394 13.3066C14.0918 13.5703 13.8237 13.8618 13.5942 14.1758C14.4316 14.7158 15.4487 15.0073 16.4937 15.0059C17.1191 15.0068 17.7388 14.9028 18.3184 14.6997L18.3184 14.6987ZM19.4561 14.1343C20.4043 13.5039 21.0498 12.5933 21.27 11.5762C21.0635 11.5317 20.8018 11.4873 20.5137 11.4526C19.874 11.3726 19.2246 11.3667 18.5825 11.4351C18.9438 12.3169 19.2358 13.2188 19.4561 14.1348L19.4561 14.1343ZM16.4937 16.0566C13.1392 16.0566 10.4204 13.7051 10.4204 10.8042C10.4204 7.90381 13.1392 5.55225 16.4937 5.55225C19.8477 5.55225 22.5664 7.90381 22.5664 10.8042C22.5664 13.7051 19.8477 16.0566 16.4937 16.0566Z" fill="#2B2B2B" fill-opacity="1.000000" fill-rule="nonzero"/>
		</g>
	</g>
</svg>
