<svg width="24.986328" height="21.608887" viewBox="0 0 24.9863 21.6089" fill="none" xmlns="http://www.w3.org/2000/svg" xmlns:xlink="http://www.w3.org/1999/xlink">
	<desc>
			Created with Pixso.
	</desc>
	<defs>
		<clipPath id="clip2_6946">
			<rect id="Icons-instagram" width="14.575344" height="12.605051" transform="translate(5.205566 4.501953)" fill="white" fill-opacity="0"/>
		</clipPath>
	</defs>
	<ellipse id="Ellipse 9" cx="12.493164" cy="10.804199" rx="12.493153" ry="10.804329" fill="#FFB400" fill-opacity="1.000000"/>
	<rect id="Icons-instagram" width="14.575344" height="12.605051" transform="translate(5.205566 4.501953)" fill="#FFFFFF" fill-opacity="0"/>
	<rect id="Icons-instagram" width="14.575344" height="12.605051" transform="translate(5.205566 4.501953)" fill="#FFFFFF" fill-opacity="0"/>
	<rect id="Icons-instagram" width="14.575344" height="12.605051" transform="translate(5.205566 4.501953)" fill="#FFFFFF" fill-opacity="0"/>
	<g clip-path="url(#clip2_6946)">
		<path id="Vector" d="M12.4937 5.55225C14.1436 5.55225 14.3496 5.55762 14.9966 5.58398C15.6436 5.60986 16.084 5.69775 16.4712 5.82812C16.8721 5.96143 17.21 6.14209 17.5474 6.43359C17.8564 6.69629 18.0952 7.01367 18.2476 7.36426C18.3975 7.69873 18.4995 8.08008 18.5303 8.63965C18.5586 9.19922 18.5664 9.37744 18.5664 10.8042C18.5664 12.2314 18.5605 12.4092 18.5303 12.9692C18.4995 13.5288 18.3975 13.9092 18.2476 14.2446C18.0957 14.5952 17.8564 14.9131 17.5474 15.1753C17.2437 15.4419 16.8765 15.6489 16.4712 15.7808C16.0845 15.9106 15.6436 15.9985 14.9966 16.0249C14.3496 16.0498 14.1436 16.0566 12.4937 16.0566C10.8433 16.0566 10.6377 16.0513 9.99023 16.0249C9.34326 15.9985 8.90332 15.9106 8.51562 15.7808C8.11035 15.6489 7.74268 15.4424 7.43945 15.1753C7.13037 14.9126 6.8916 14.5952 6.73926 14.2446C6.58887 13.9102 6.4873 13.5288 6.45703 12.9692C6.42822 12.4092 6.42041 12.2314 6.42041 10.8042C6.42041 9.37744 6.42627 9.19922 6.45703 8.63965C6.4873 8.07959 6.58887 7.69922 6.73926 7.36426C6.89111 7.01367 7.13037 6.6958 7.43945 6.43359C7.74316 6.1665 8.11035 5.95947 8.51562 5.82812C8.90332 5.69775 9.34277 5.60986 9.99023 5.58398C10.6377 5.55908 10.8433 5.55225 12.4937 5.55225ZM12.4937 8.17822C11.688 8.17822 10.916 8.45508 10.3462 8.94727C9.77686 9.43994 9.45703 10.1079 9.45703 10.8042C9.45703 11.501 9.77686 12.1689 10.3462 12.6611C10.916 13.1538 11.688 13.4302 12.4937 13.4302C13.2988 13.4302 14.0713 13.1538 14.6406 12.6611C15.21 12.1689 15.5298 11.501 15.5298 10.8042C15.5298 10.1079 15.21 9.43994 14.6406 8.94727C14.0713 8.45508 13.2988 8.17822 12.4937 8.17822ZM16.4409 8.04688C16.4409 7.87305 16.3608 7.70605 16.2188 7.58301C16.0762 7.45947 15.8833 7.39062 15.6816 7.39062C15.4805 7.39062 15.2876 7.45947 15.145 7.58301C15.0024 7.70605 14.9229 7.87305 14.9229 8.04688C14.9229 8.22119 15.0024 8.38818 15.145 8.51123C15.2876 8.63428 15.4805 8.70361 15.6816 8.70361C15.8833 8.70361 16.0762 8.63428 16.2188 8.51123C16.3608 8.38818 16.4409 8.22119 16.4409 8.04688ZM12.4937 9.22852C12.9766 9.22852 13.4399 9.39453 13.7817 9.69043C14.1235 9.98584 14.3154 10.3862 14.3154 10.8042C14.3154 11.2222 14.1235 11.623 13.7817 11.9185C13.4399 12.2139 12.9766 12.3799 12.4937 12.3799C12.0103 12.3799 11.5469 12.2139 11.2051 11.9185C10.8633 11.623 10.6714 11.2222 10.6714 10.8042C10.6714 10.3862 10.8633 9.98584 11.2051 9.69043C11.5469 9.39453 12.0103 9.22852 12.4937 9.22852Z" fill="#2B2B2B" fill-opacity="1.000000" fill-rule="nonzero"/>
	</g>
</svg>
