<svg width="24.986328" height="21.608887" viewBox="0 0 24.9863 21.6089" fill="none" xmlns="http://www.w3.org/2000/svg" xmlns:xlink="http://www.w3.org/1999/xlink">
	<desc>
			Created with Pixso.
	</desc>
	<defs>
		<clipPath id="clip2_6936">
			<rect id="Icons-twitter" width="14.575344" height="12.605051" transform="translate(5.205566 4.501953)" fill="white" fill-opacity="0"/>
		</clipPath>
	</defs>
	<ellipse id="Ellipse 9" cx="12.493164" cy="10.804199" rx="12.493153" ry="10.804329" fill="#FFB400" fill-opacity="1.000000"/>
	<rect id="Icons-twitter" width="14.575344" height="12.605051" transform="translate(5.205566 4.501953)" fill="#FFFFFF" fill-opacity="0"/>
	<rect id="Icons-twitter" width="14.575344" height="12.605051" transform="translate(5.205566 4.501953)" fill="#FFFFFF" fill-opacity="0"/>
	<rect id="Icons-twitter" width="14.575344" height="12.605051" transform="translate(5.205566 4.501953)" fill="#FFFFFF" fill-opacity="0"/>
	<g clip-path="url(#clip2_6936)">
		<path id="Vector" d="M18.665 7.47217C18.2012 7.64941 17.7095 7.76611 17.2061 7.81787C17.7368 7.54346 18.1338 7.11133 18.3237 6.60254C17.8257 6.85889 17.2798 7.03857 16.7104 7.13574C16.3281 6.78174 15.8218 6.54736 15.2695 6.46826C14.7173 6.38965 14.1499 6.47021 13.6567 6.69873C13.1631 6.92725 12.7705 7.29053 12.54 7.73145C12.3101 8.17285 12.2544 8.66748 12.3828 9.13867C11.373 9.09521 10.3853 8.86816 9.4834 8.47266C8.58105 8.07715 7.78564 7.52197 7.14795 6.84375C6.92236 7.17871 6.80371 7.56006 6.8042 7.94824C6.8042 8.70947 7.25244 9.38232 7.93359 9.77637C7.53027 9.76562 7.13623 9.67139 6.78369 9.50146L6.78369 9.52881C6.78369 10.0361 6.98682 10.5278 7.35791 10.9204C7.72949 11.313 8.24609 11.5825 8.8208 11.6831C8.44678 11.7705 8.0542 11.7837 7.67334 11.7207C7.83545 12.1572 8.15137 12.5391 8.57666 12.8125C9.00195 13.0864 9.51562 13.2378 10.0459 13.2466C9.51904 13.6045 8.91602 13.8687 8.27051 14.0249C7.62549 14.1812 6.95117 14.2256 6.28613 14.1562C7.44727 14.8018 8.79883 15.1445 10.1792 15.1436C14.8511 15.1436 17.4058 11.7964 17.4058 8.89355C17.4058 8.79883 17.4028 8.70361 17.3979 8.60986C17.8955 8.29883 18.3247 7.91406 18.6655 7.47266L18.665 7.47217Z" fill="#2B2B2B" fill-opacity="1.000000" fill-rule="nonzero"/>
	</g>
</svg>
